<svg width="23" height="23" viewBox="0 0 23 23" fill="none" xmlns="http://www.w3.org/2000/svg">
<path d="M7.456 15.544V17.432H14.56V19.256H7.456V23H4.224V19.256H0.96V17.432H4.224V0.599998H13.024C15.9467 0.599998 18.2293 1.25067 19.872 2.552C21.5147 3.832 22.336 5.66667 22.336 8.056C22.336 10.4667 21.5147 12.3227 19.872 13.624C18.2293 14.904 15.9467 15.544 13.024 15.544H7.456ZM19.104 8.088C19.104 6.57333 18.5813 5.41067 17.536 4.6C16.4907 3.78933 14.9867 3.384 13.024 3.384H7.456V12.888H13.024C14.9653 12.888 16.4587 12.472 17.504 11.64C18.5707 10.7867 19.104 9.60267 19.104 8.088Z" fill="white"/>
</svg>
